<?xml version="1.0" standalone="no"?>
<!DOCTYPE svg PUBLIC "-//W3C//DTD SVG 1.0//EN" "http://www.w3.org/TR/2001/REC-SVG-20010904/DTD/svg10.dtd">
<svg xmlns="http://www.w3.org/2000/svg" xmlns:xlink="http://www.w3.org/1999/xlink" id="body_1" width="20" height="20">

<g transform="matrix(0.13071898 0 0 0.13071898 0 0)">
	<g>
        <path d="M63.5 -0.5C 71.8333 -0.5 80.1667 -0.5 88.5 -0.5C 103.599 2.53918 116.932 9.20585 128.5 19.5C 133.351 14.8149 138.351 10.3149 143.5 6C 146.993 5.13065 149.993 5.96399 152.5 8.5C 152.5 25.8333 152.5 43.1667 152.5 60.5C 151.373 61.1217 150.373 61.955 149.5 63C 132.5 63.6667 115.5 63.6667 98.5 63C 94.9933 61.1387 93.8266 58.3054 95 54.5C 99.6486 49.0172 104.482 43.6839 109.5 38.5C 88.0158 21.7638 66.0158 21.2638 43.5 37C 23.487 57.0768 20.3203 79.5768 34 104.5C 52.9792 127.23 75.8125 132.063 102.5 119C 108.35 114.973 113.683 110.473 118.5 105.5C 124.755 110.25 130.589 115.583 136 121.5C 136.667 122.5 136.667 123.5 136 124.5C 123.456 139.571 107.622 148.904 88.5 152.5C 80.1667 152.5 71.8333 152.5 63.5 152.5C 29.1933 144.193 7.86002 122.86 -0.5 88.5C -0.5 80.1667 -0.5 71.8333 -0.5 63.5C 7.86002 29.14 29.1933 7.80664 63.5 -0.5z" stroke="none" fill="#DCDDDC" fill-rule="nonzero" fill-opacity="0.9647059" />
	</g>
</g>
</svg>