<?xml version="1.0" encoding="UTF-8"?>
<!DOCTYPE svg PUBLIC "-//W3C//DTD SVG 1.1//EN" "http://www.w3.org/Graphics/SVG/1.1/DTD/svg11.dtd">
<svg xmlns="http://www.w3.org/2000/svg" version="1.1" width="1000px" height="1000px" style="shape-rendering:geometricPrecision; text-rendering:geometricPrecision; image-rendering:optimizeQuality; fill-rule:evenodd; clip-rule:evenodd" xmlns:xlink="http://www.w3.org/1999/xlink">
<g><path style="opacity:0.943" fill="#000000" d="M 289.5,110.5 C 295.545,110.428 301.545,110.928 307.5,112C 312.036,114.04 316.703,115.707 321.5,117C 322.167,117.667 322.833,118.333 323.5,119C 326.833,119.333 330.167,119.667 333.5,120C 415.159,121.23 496.826,121.896 578.5,122C 581.726,123.427 584.892,124.927 588,126.5C 588.778,124.416 589.945,122.583 591.5,121C 594.408,119.693 597.241,118.193 600,116.5C 604.124,115.428 608.29,115.262 612.5,116C 617.036,118.04 621.703,119.707 626.5,121C 628.305,123.403 630.638,125.07 633.5,126C 635.006,128.333 636.673,130.5 638.5,132.5C 639.064,134.819 639.564,137.153 640,139.5C 640.333,165.5 640.667,191.5 641,217.5C 648.918,223.374 657.752,227.541 667.5,230C 698.112,234.589 728.445,240.589 758.5,248C 783.958,257.03 809.291,266.363 834.5,276C 839.21,278.926 843.376,282.426 847,286.5C 847.839,289.674 849.505,292.341 852,294.5C 853.33,305.502 848.996,313.835 839,319.5C 837.456,324.949 833.956,328.283 828.5,329.5C 827.21,331.792 825.543,333.792 823.5,335.5C 784.653,358.426 745.319,380.593 705.5,402C 703.651,403.093 701.984,404.426 700.5,406C 702.645,408.709 703.812,411.876 704,415.5C 704.5,491.166 704.667,566.833 704.5,642.5C 709.648,643.074 714.482,642.407 719,640.5C 724.642,620.598 729.976,600.598 735,580.5C 736.122,573.551 736.789,566.551 737,559.5C 738.413,556.636 739.913,553.97 741.5,551.5C 743.103,551.688 744.437,551.188 745.5,550C 792.833,549.333 840.167,549.333 887.5,550C 893.044,552.176 896.877,556.01 899,561.5C 899.547,594.505 899.88,627.505 900,660.5C 897.5,663.667 895,666.833 892.5,670C 888.313,670.071 884.313,670.738 880.5,672C 833.833,672.333 787.167,672.667 740.5,673C 739.271,673.781 737.938,674.281 736.5,674.5C 725.786,672.798 714.786,672.132 703.5,672.5C 703.67,675.491 702.337,677.491 699.5,678.5C 701.165,682.022 699.999,684.022 696,684.5C 692.386,689.102 689.219,694.102 686.5,699.5C 653.489,717.361 624.156,739.861 598.5,767C 587.304,775.028 575.971,782.862 564.5,790.5C 551.198,799.869 538.531,810.035 526.5,821C 509.661,829.013 495.327,840.179 483.5,854.5C 482.126,855.711 480.626,856.711 479,857.5C 464.599,853.216 451.432,846.716 439.5,838C 405.503,821.166 372.503,802.5 340.5,782C 328.501,778.676 318.501,772.342 310.5,763C 285.384,749.699 260.884,735.532 237,720.5C 234.648,720.265 232.148,720.099 229.5,720C 228.667,719.167 227.833,718.333 227,717.5C 224.667,718.877 222.167,719.877 219.5,720.5C 216.202,718.84 212.869,717.173 209.5,715.5C 208.769,711.828 207.269,711.161 205,713.5C 201.146,710.496 198.312,706.83 196.5,702.5C 196.833,701.833 197.167,701.167 197.5,700.5C 195.527,697.754 194.027,694.754 193,691.5C 192.974,601.481 192.308,511.481 191,421.5C 168.131,402.808 145.965,383.142 124.5,362.5C 118.658,359.079 112.658,355.912 106.5,353C 102.737,350.114 99.4032,346.781 96.5,343C 90.5103,340.34 84.8436,337.174 79.5,333.5C 76.9644,331.044 75.4644,328.044 75,324.5C 74.3333,320.167 74.3333,315.833 75,311.5C 81.5453,298.612 90.0453,287.112 100.5,277C 106.109,274.354 111.609,271.521 117,268.5C 127.106,268.75 136.606,266.584 145.5,262C 153.167,260.333 160.833,258.667 168.5,257C 181.65,251.949 194.983,247.283 208.5,243C 228.431,239.933 248.098,235.766 267.5,230.5C 267.333,197.498 267.5,164.498 268,131.5C 270.442,128.952 272.108,125.952 273,122.5C 274.011,121.663 275.178,121.33 276.5,121.5C 276.826,119.339 277.826,117.506 279.5,116C 283.152,114.627 286.486,112.793 289.5,110.5 Z M 579.5,258.5 C 577.345,258.628 575.345,258.128 573.5,257C 494.157,256.127 414.824,255.461 335.5,255C 333.146,255.847 330.812,256.68 328.5,257.5C 328.333,231.165 328.5,204.831 329,178.5C 337.667,179.167 346.333,179.833 355,180.5C 355.561,179.978 356.228,179.645 357,179.5C 432.509,180.626 506.676,181.292 579.5,181.5C 579.5,207.167 579.5,232.833 579.5,258.5 Z M 640.5,282.5 C 645.417,283.937 650.25,285.604 655,287.5C 655.333,287.167 655.667,286.833 656,286.5C 660.057,288.453 664.391,289.786 669,290.5C 670.703,289.3 672.203,289.633 673.5,291.5C 699.417,294.65 725.084,299.817 750.5,307C 713.755,327.464 677.255,348.298 641,369.5C 640.5,340.502 640.333,311.502 640.5,282.5 Z M 264.5,292.5 C 265.809,294.571 266.475,297.071 266.5,300C 264.984,333.579 262.65,367.079 259.5,400.5C 227.052,375.542 196.385,348.709 167.5,320C 174.889,317.788 182.389,315.955 190,314.5C 212.608,305.303 236.108,298.803 260.5,295C 262.437,294.878 263.77,294.045 264.5,292.5 Z M 323.5,382.5 C 324.534,383.687 325.867,384.52 327.5,385C 334.407,385.657 341.24,386.49 348,387.5C 424.91,387.472 502.077,387.472 579.5,387.5C 579.666,394.841 579.5,402.174 579,409.5C 578.626,410.416 578.126,411.25 577.5,412C 560.757,423.364 543.757,434.364 526.5,445C 501.076,458.477 475.743,472.143 450.5,486C 441.383,489.074 432.05,490.074 422.5,489C 417.696,484.615 412.029,481.948 405.5,481C 401.806,478.639 398.806,475.639 396.5,472C 391.272,470.026 385.938,468.359 380.5,467C 359.228,455.864 337.562,445.531 315.5,436C 316.653,434.117 318.319,433.284 320.5,433.5C 321.119,416.244 322.119,399.244 323.5,382.5 Z M 641.5,440.5 C 643.497,507.492 644.163,574.825 643.5,642.5C 587.166,642.667 530.832,642.5 474.5,642C 463.641,636.874 452.641,636.374 441.5,640.5C 439.913,642.97 438.413,645.636 437,648.5C 436.568,654.78 437.735,660.78 440.5,666.5C 442.993,668.58 445.659,670.414 448.5,672C 503.833,672.333 559.167,672.667 614.5,673C 608.548,677.318 602.548,681.651 596.5,686C 584.388,697.068 572.388,708.235 560.5,719.5C 537.754,734.337 516.087,750.503 495.5,768C 486.811,772.008 478.477,776.508 470.5,781.5C 468.042,779.545 465.709,777.378 463.5,775C 457.263,772.548 451.263,769.548 445.5,766C 429.143,754.491 412.476,743.491 395.5,733C 359.013,716.512 322.68,699.845 286.5,683C 280.527,679.348 274.86,675.348 269.5,671C 264.248,668.538 258.915,666.371 253.5,664.5C 253.5,599.5 253.5,534.5 253.5,469.5C 289.481,490.494 325.815,510.994 362.5,531C 389.126,542.413 416.292,551.913 444,559.5C 458.395,554.299 472.395,548.299 486,541.5C 493.076,536.369 499.909,530.869 506.5,525C 531.66,511.833 556.327,497.833 580.5,483C 581.449,482.383 582.282,482.549 583,483.5C 583.333,484.833 583.667,486.167 584,487.5C 584.788,481.708 587.954,478.208 593.5,477C 601.052,470.394 609.385,465.061 618.5,461C 624.212,455.829 630.212,451.162 636.5,447C 637.793,446.51 639.127,446.343 640.5,446.5C 640.517,444.435 640.85,442.435 641.5,440.5 Z"/></g>
<g><path style="opacity:0.969" fill="#fe0000" d="M 579.5,258.5 C 579.557,259.609 579.89,260.609 580.5,261.5C 580.5,262.5 580.5,263.5 580.5,264.5C 582.881,266.308 585.548,267.808 588.5,269C 589.167,270.333 589.833,271.667 590.5,273C 594.933,271.202 597.267,273.035 597.5,278.5C 596.624,278.369 595.957,278.702 595.5,279.5C 594.727,282.431 593.727,285.264 592.5,288C 588.911,288.207 585.411,288.707 582,289.5C 581.833,289.833 581.667,290.167 581.5,290.5C 584.428,291.484 587.428,291.817 590.5,291.5C 590.5,292.5 590.5,293.5 590.5,294.5C 589.629,297.112 588.963,299.779 588.5,302.5C 589.502,304.011 590.169,305.678 590.5,307.5C 595.155,306.819 597.822,308.819 598.5,313.5C 597.768,316.197 596.934,318.864 596,321.5C 595.781,320.062 595.281,318.729 594.5,317.5C 594.167,317.667 593.833,317.833 593.5,318C 593.454,320.436 593.121,322.936 592.5,325.5C 590.602,327.468 588.269,328.802 585.5,329.5C 588.086,330.48 590.753,330.813 593.5,330.5C 593.675,333.329 592.342,334.996 589.5,335.5C 588.703,337.132 587.703,338.632 586.5,340C 587.924,343.209 589.257,345.709 590.5,347.5C 591.5,347.5 592.5,347.5 593.5,347.5C 593.5,348.5 593.5,349.5 593.5,350.5C 592.178,350.33 591.011,350.663 590,351.5C 589.798,353.256 589.298,354.922 588.5,356.5C 587.391,355.41 586.391,355.41 585.5,356.5C 587.665,357.88 587.999,359.547 586.5,361.5C 584.381,359.913 582.714,360.246 581.5,362.5C 584.376,362.613 587.376,363.28 590.5,364.5C 589.649,367.578 588.649,370.578 587.5,373.5C 587.167,373.5 586.833,373.5 586.5,373.5C 583.112,372.835 582.112,373.835 583.5,376.5C 581.951,378.902 581.284,381.568 581.5,384.5C 580.094,384.973 579.427,385.973 579.5,387.5C 502.077,387.472 424.91,387.472 348,387.5C 341.24,386.49 334.407,385.657 327.5,385C 325.867,384.52 324.534,383.687 323.5,382.5C 322.833,382.5 322.5,382.167 322.5,381.5C 323.181,376.845 321.181,374.178 316.5,373.5C 316.977,372.522 317.643,371.689 318.5,371C 315.697,368.778 315.863,366.945 319,365.5C 322.043,367.814 323.043,366.814 322,362.5C 320.113,360.974 319.113,358.974 319,356.5C 318.066,359.592 316.9,359.925 315.5,357.5C 317.827,354.176 317.993,350.842 316,347.5C 315.342,354.86 314.176,355.194 312.5,348.5C 312.5,347.167 312.5,345.833 312.5,344.5C 313.833,344.5 315.167,344.5 316.5,344.5C 316.5,343.5 316.5,342.5 316.5,341.5C 315.167,341.5 313.833,341.5 312.5,341.5C 312.5,340.5 312.5,339.5 312.5,338.5C 313.434,335.383 314.767,332.383 316.5,329.5C 318.143,329.48 319.476,330.147 320.5,331.5C 320.833,331 321.167,330.5 321.5,330C 320.523,328.503 319.523,327.003 318.5,325.5C 319.01,323.912 320.01,322.745 321.5,322C 320.57,320.605 320.57,319.105 321.5,317.5C 321.444,316.263 320.944,315.263 320,314.5C 319.506,316.134 319.34,317.801 319.5,319.5C 318.5,319.5 317.5,319.5 316.5,319.5C 316.5,316.5 316.5,313.5 316.5,310.5C 318.167,310.5 319.833,310.5 321.5,310.5C 321.473,307.77 322.14,305.27 323.5,303C 323.415,301.893 323.081,300.893 322.5,300C 326.573,297.962 326.24,296.462 321.5,295.5C 322.95,294.15 323.617,292.484 323.5,290.5C 324.552,290.649 325.552,290.483 326.5,290C 323.833,287.667 323.833,285.333 326.5,283C 322.759,282.597 321.759,280.764 323.5,277.5C 321.914,275.827 321.247,273.827 321.5,271.5C 327.373,271.402 327.706,270.402 322.5,268.5C 324.038,266.757 325.038,264.757 325.5,262.5C 326.925,261.078 327.925,259.411 328.5,257.5C 330.812,256.68 333.146,255.847 335.5,255C 414.824,255.461 494.157,256.127 573.5,257C 575.345,258.128 577.345,258.628 579.5,258.5 Z"/></g>
<g><path style="opacity:0.995" fill="#ad0003" d="M 580.5,261.5 C 582.47,262.162 584.47,262.828 586.5,263.5C 587.429,264.689 587.762,266.022 587.5,267.5C 589.5,267.5 591.5,267.5 593.5,267.5C 594.195,269.978 595.695,271.978 598,273.5C 598.78,275.387 598.613,277.054 597.5,278.5C 597.267,273.035 594.933,271.202 590.5,273C 589.833,271.667 589.167,270.333 588.5,269C 585.548,267.808 582.881,266.308 580.5,264.5C 580.5,263.5 580.5,262.5 580.5,261.5 Z"/></g>
<g><path style="opacity:1" fill="#980001" d="M 597.5,278.5 C 598.108,279.8 598.775,281.133 599.5,282.5C 598.637,284.872 597.471,284.872 596,282.5C 595.666,284.847 595.833,287.181 596.5,289.5C 592.299,289.442 591.799,290.442 595,292.5C 595.64,294.265 595.473,295.932 594.5,297.5C 593.778,297.918 593.278,298.584 593,299.5C 592.95,297.256 592.117,295.589 590.5,294.5C 590.5,293.5 590.5,292.5 590.5,291.5C 587.428,291.817 584.428,291.484 581.5,290.5C 581.667,290.167 581.833,289.833 582,289.5C 585.411,288.707 588.911,288.207 592.5,288C 593.727,285.264 594.727,282.431 595.5,279.5C 595.957,278.702 596.624,278.369 597.5,278.5 Z"/></g>
<g><path style="opacity:1" fill="#5d0101" d="M 319.5,287.5 C 321.132,287.825 322.132,288.825 322.5,290.5C 321.066,294.319 320.066,298.319 319.5,302.5C 317.074,304.375 315.407,306.709 314.5,309.5C 314.215,307.712 314.548,306.045 315.5,304.5C 317.841,302.985 319.174,300.818 319.5,298C 318.352,294.462 318.352,290.962 319.5,287.5 Z"/></g>
<g><path style="opacity:1" fill="#670001" d="M 590.5,294.5 C 592.117,295.589 592.95,297.256 593,299.5C 593.278,298.584 593.778,297.918 594.5,297.5C 594.371,299.216 594.038,300.883 593.5,302.5C 591.833,302.5 590.167,302.5 588.5,302.5C 588.963,299.779 589.629,297.112 590.5,294.5 Z"/></g>
<g><path style="opacity:1" fill="#5d0000" d="M 602.5,309.5 C 606.244,311.299 607.244,313.966 605.5,317.5C 605.428,314.447 604.428,311.781 602.5,309.5 Z"/></g>
<g><path style="opacity:1" fill="#790001" d="M 605.5,317.5 C 606.108,318.8 606.775,320.133 607.5,321.5C 606.637,323.872 605.471,323.872 604,321.5C 603.244,323.809 603.744,325.809 605.5,327.5C 603.955,328.452 602.288,328.785 600.5,328.5C 601.428,325.546 602.261,322.546 603,319.5C 603.417,318.244 604.25,317.577 605.5,317.5 Z"/></g>
<g><path style="opacity:1" fill="#e20000" d="M 588.5,302.5 C 590.167,302.5 591.833,302.5 593.5,302.5C 595.176,303.183 595.843,304.517 595.5,306.5C 597.5,306.5 599.5,306.5 601.5,306.5C 601.263,307.791 601.596,308.791 602.5,309.5C 604.428,311.781 605.428,314.447 605.5,317.5C 604.25,317.577 603.417,318.244 603,319.5C 602.261,322.546 601.428,325.546 600.5,328.5C 600.167,328.5 599.833,328.5 599.5,328.5C 597.712,328.215 596.045,328.548 594.5,329.5C 595.689,330.429 597.022,330.762 598.5,330.5C 598.5,331.5 598.5,332.5 598.5,333.5C 597.616,337.339 595.95,340.673 593.5,343.5C 594.5,343.5 595.5,343.5 596.5,343.5C 596.5,345.833 596.5,348.167 596.5,350.5C 594.982,352.681 593.982,355.181 593.5,358C 594.022,358.95 594.689,359.784 595.5,360.5C 595.043,361.298 594.376,361.631 593.5,361.5C 592.833,360.167 592.167,360.167 591.5,361.5C 589.833,361.5 588.167,361.5 586.5,361.5C 587.999,359.547 587.665,357.88 585.5,356.5C 586.391,355.41 587.391,355.41 588.5,356.5C 589.298,354.922 589.798,353.256 590,351.5C 591.011,350.663 592.178,350.33 593.5,350.5C 593.5,349.5 593.5,348.5 593.5,347.5C 592.5,347.5 591.5,347.5 590.5,347.5C 589.257,345.709 587.924,343.209 586.5,340C 587.703,338.632 588.703,337.132 589.5,335.5C 592.342,334.996 593.675,333.329 593.5,330.5C 590.753,330.813 588.086,330.48 585.5,329.5C 588.269,328.802 590.602,327.468 592.5,325.5C 593.121,322.936 593.454,320.436 593.5,318C 593.833,317.833 594.167,317.667 594.5,317.5C 595.281,318.729 595.781,320.062 596,321.5C 596.934,318.864 597.768,316.197 598.5,313.5C 597.822,308.819 595.155,306.819 590.5,307.5C 590.169,305.678 589.502,304.011 588.5,302.5 Z"/></g>
<g><path style="opacity:1" fill="#a20001" d="M 325.5,262.5 C 325.038,264.757 324.038,266.757 322.5,268.5C 327.706,270.402 327.373,271.402 321.5,271.5C 321.247,273.827 321.914,275.827 323.5,277.5C 321.759,280.764 322.759,282.597 326.5,283C 323.833,285.333 323.833,287.667 326.5,290C 325.552,290.483 324.552,290.649 323.5,290.5C 323.617,292.484 322.95,294.15 321.5,295.5C 326.24,296.462 326.573,297.962 322.5,300C 323.081,300.893 323.415,301.893 323.5,303C 322.14,305.27 321.473,307.77 321.5,310.5C 319.833,310.5 318.167,310.5 316.5,310.5C 316.5,313.5 316.5,316.5 316.5,319.5C 317.5,319.5 318.5,319.5 319.5,319.5C 319.34,317.801 319.506,316.134 320,314.5C 320.944,315.263 321.444,316.263 321.5,317.5C 320.57,319.105 320.57,320.605 321.5,322C 320.01,322.745 319.01,323.912 318.5,325.5C 319.523,327.003 320.523,328.503 321.5,330C 321.167,330.5 320.833,331 320.5,331.5C 319.476,330.147 318.143,329.48 316.5,329.5C 316.631,328.624 316.298,327.957 315.5,327.5C 314.833,328.5 314.167,329.5 313.5,330.5C 312.355,329.224 312.355,327.891 313.5,326.5C 308.328,325.636 307.328,323.136 310.5,319C 309.107,317.699 308.607,316.199 309,314.5C 310.076,311.921 311.909,310.254 314.5,309.5C 315.407,306.709 317.074,304.375 319.5,302.5C 320.066,298.319 321.066,294.319 322.5,290.5C 322.132,288.825 321.132,287.825 319.5,287.5C 318.081,286.549 316.415,286.216 314.5,286.5C 314.449,284.43 315.115,282.597 316.5,281C 315.107,279.699 314.607,278.199 315,276.5C 318.564,271.79 322.064,267.124 325.5,262.5 Z"/></g>
<g><path style="opacity:1" fill="#9c0000" d="M 599.5,328.5 C 601.15,330.017 602.483,331.85 603.5,334C 602.394,335.858 601.394,337.692 600.5,339.5C 599.628,338.388 599.628,337.054 600.5,335.5C 600.253,334.287 599.586,333.62 598.5,333.5C 598.5,332.5 598.5,331.5 598.5,330.5C 597.022,330.762 595.689,330.429 594.5,329.5C 596.045,328.548 597.712,328.215 599.5,328.5 Z"/></g>
<g><path style="opacity:0.996" fill="#5d0000" d="M 598.5,333.5 C 599.586,333.62 600.253,334.287 600.5,335.5C 599.628,337.054 599.628,338.388 600.5,339.5C 599.878,340.627 599.045,341.627 598,342.5C 597.817,345.365 597.317,348.031 596.5,350.5C 596.5,348.167 596.5,345.833 596.5,343.5C 595.5,343.5 594.5,343.5 593.5,343.5C 595.95,340.673 597.616,337.339 598.5,333.5 Z"/></g>
<g><path style="opacity:1" fill="#950002" d="M 312.5,338.5 C 312.5,339.5 312.5,340.5 312.5,341.5C 313.833,341.5 315.167,341.5 316.5,341.5C 316.5,342.5 316.5,343.5 316.5,344.5C 315.167,344.5 313.833,344.5 312.5,344.5C 312.5,345.833 312.5,347.167 312.5,348.5C 313.079,352.314 312.412,355.981 310.5,359.5C 310.167,359.5 309.833,359.5 309.5,359.5C 308.081,358.549 306.415,358.216 304.5,358.5C 304.449,356.43 305.115,354.597 306.5,353C 305.107,351.699 304.607,350.199 305,348.5C 308.11,345.436 310.61,342.103 312.5,338.5 Z"/></g>
<g><path style="opacity:1" fill="#6c0001" d="M 596.5,350.5 C 596.821,352.048 597.821,352.715 599.5,352.5C 599.785,354.288 599.452,355.955 598.5,357.5C 597.201,356.91 596.368,355.91 596,354.5C 595.825,357.157 595.992,359.824 596.5,362.5C 595.209,362.737 594.209,362.404 593.5,361.5C 594.376,361.631 595.043,361.298 595.5,360.5C 594.689,359.784 594.022,358.95 593.5,358C 593.982,355.181 594.982,352.681 596.5,350.5 Z"/></g>
<g><path style="opacity:1" fill="#450200" d="M 309.5,359.5 C 309.833,359.5 310.167,359.5 310.5,359.5C 311.391,360.261 312.058,361.261 312.5,362.5C 310.875,365.235 310.208,368.235 310.5,371.5C 308.616,367.705 308.282,363.705 309.5,359.5 Z"/></g>
<g><path style="opacity:1" fill="#c50001" d="M 322.5,381.5 C 320.025,380.313 319.025,378.313 319.5,375.5C 316.099,374.964 313.099,373.631 310.5,371.5C 310.208,368.235 310.875,365.235 312.5,362.5C 312.058,361.261 311.391,360.261 310.5,359.5C 312.412,355.981 313.079,352.314 312.5,348.5C 314.176,355.194 315.342,354.86 316,347.5C 317.993,350.842 317.827,354.176 315.5,357.5C 316.9,359.925 318.066,359.592 319,356.5C 319.113,358.974 320.113,360.974 322,362.5C 323.043,366.814 322.043,367.814 319,365.5C 315.863,366.945 315.697,368.778 318.5,371C 317.643,371.689 316.977,372.522 316.5,373.5C 321.181,374.178 323.181,376.845 322.5,381.5 Z"/></g>
<g><path style="opacity:0.999" fill="#830001" d="M 586.5,361.5 C 588.167,361.5 589.833,361.5 591.5,361.5C 592.96,363.144 594.293,364.977 595.5,367C 593.738,371.244 591.405,375.077 588.5,378.5C 587.325,378.719 586.325,378.386 585.5,377.5C 586.313,376.186 587.313,375.019 588.5,374C 588.272,373.601 587.938,373.435 587.5,373.5C 588.649,370.578 589.649,367.578 590.5,364.5C 587.376,363.28 584.376,362.613 581.5,362.5C 582.714,360.246 584.381,359.913 586.5,361.5 Z"/></g>
<g><path style="opacity:0.986" fill="#360200" d="M 586.5,373.5 C 586.833,373.5 587.167,373.5 587.5,373.5C 587.938,373.435 588.272,373.601 588.5,374C 587.313,375.019 586.313,376.186 585.5,377.5C 586.325,378.386 587.325,378.719 588.5,378.5C 587.974,380.23 586.974,381.564 585.5,382.5C 583.865,379.172 584.198,376.172 586.5,373.5 Z"/></g>
<g><path style="opacity:0.945" fill="#8c0001" d="M 586.5,373.5 C 584.198,376.172 583.865,379.172 585.5,382.5C 584.329,383.345 582.995,384.011 581.5,384.5C 581.284,381.568 581.951,378.902 583.5,376.5C 582.112,373.835 583.112,372.835 586.5,373.5 Z"/></g>
<g><path style="opacity:0.027" fill="#000000" d="M 639.5,461.5 C 640.412,468.651 640.745,475.817 640.5,483C 639.886,485.495 638.886,485.828 637.5,484C 638.184,476.489 638.851,468.989 639.5,461.5 Z"/></g>
<g><path style="opacity:0.061" fill="#000000" d="M 605.5,500.5 C 606.576,502.362 605.909,503.695 603.5,504.5C 601.792,504.297 600.459,503.464 599.5,502C 601.708,501.809 603.708,501.309 605.5,500.5 Z"/></g>
<g><path style="opacity:0.017" fill="#000000" d="M 407.5,851.5 C 408.251,850.427 409.251,850.26 410.5,851C 409.552,851.483 408.552,851.649 407.5,851.5 Z"/></g>
</svg>
